<svg version="1" xmlns="http://www.w3.org/2000/svg" width="1037.333" height="1037.333" viewBox="0 0 778.000000 778.000000"><path d="M183 48.6c-27.3 3.5-41.6 7.7-63.5 18.4-23.4 11.4-44.9 27.8-60.1 45.6-2.7 3.2-5.9 6.8-7.1 8.1-1.3 1.3-2.3 2.6-2.3 2.9 0 .3-.6 1.1-1.3 1.8-.6.8-1.8 2.2-2.5 3.2C36.1 143.5 29 156.1 23.5 169c-2 4.7-4 9.4-4.5 10.5-4 9.1-12 38.1-14.4 52.8-.3 1.5-.7 3.5-1 4.5-.4 1.7-1.2 8.2-2.5 23.2-1.3 14.8-.4 35.7 1.9 48.1.6 3 1.3 6.6 1.5 8.2 3.2 17.6 16.6 50.8 28.5 70.3 4.3 6.9 17.3 26.7 19.1 28.8.5.6 3.2 4 6 7.6 10.2 13.1 24.5 30.3 34.3 41.4 3.4 3.8 6 7.4 5.8 8-.2.6 0 .8.4.4s2.1.9 3.8 2.9c6.7 7.8 20.9 22.7 40.1 41.8 18.2 18.1 26.7 26.1 42 39.6 2.8 2.4 5.2 4.6 5.5 5 .3.3 5.3 4.6 11.2 9.6 5.8 5 10.3 9.5 10 9.9-.4.4-.2.4.4.1.6-.3 2.1.4 3.5 1.6 1.3 1.3 6.2 5.4 10.9 9.2 4.7 3.9 9.4 7.7 10.5 8.7 5.6 4.6 10.5 8.5 13.1 10.5 2.6 2 26.8 20.7 30.4 23.6.9.7 3.8 2.8 6.5 4.7 2.8 1.9 5.2 3.8 5.3 4.2.2.4 1 .8 1.7.8s1.5.4 1.7.8c.6 1.5 28.9 20.7 66.1 44.9 7.5 4.9 13.5 9.2 13.2 9.5-.3.2.1.5.8.5.7 0 4.1 1.8 7.5 4.1 3.3 2.3 6.4 4.2 6.7 4.2.4 0 3.9-2.1 7.8-4.7 4-2.7 7.7-5 8.2-5.3.6-.3 3.1-2 5.7-3.8 2.6-1.7 4.9-3.2 5.2-3.2.3 0 1.4-.7 2.4-1.6 3.5-3.1 10.7-7.2 11.7-6.7.5.4.7.3.3-.1-.4-.4 8-6.5 18.5-13.4 10.6-7 19.7-13.1 20.2-13.5.6-.4 8.2-5.9 16.9-12.2 8.7-6.3 17.3-12.6 19-14 1.7-1.3 8.5-6.6 15.1-11.6 6.6-5.1 12.2-9.6 12.5-9.9.3-.3 2.3-1.9 4.5-3.6 2.1-1.6 4.8-3.7 6-4.7 1.1-1 2.9-2.6 4-3.6 1.1-.9 5.8-4.9 10.5-8.7 4.7-3.8 9-7.3 9.6-7.9.6-.5 3.3-2.9 6-5.2 5.2-4.4 5.7-4.8 15-13 7.9-6.9 31.9-29.1 38.9-36 .7-.7 1.6-.9 2-.5.4.4.5.2.3-.4-.2-.6 3.3-4.7 7.7-9.1 15.6-15.6 40.4-42.4 53-57.2 1.1-1.3 3-3.5 4.3-4.9 1.3-1.4 3.5-4.2 5-6.1 1.5-1.9 4.1-5.1 5.8-7 8.2-9.6 20.1-25.2 27.3-35.8 18.7-27.7 30.3-52 37.6-79.3 5.4-19.9 6.5-29.6 6.1-53-.2-11.3-.6-21.5-.9-22.7-.3-1.2-.8-5.1-1.1-8.6-1.5-15.6-9.2-45.1-17.1-64.6-20.4-51-57.8-91.7-103.5-113-7.7-3.6-18.7-7.6-23.3-8.6-1-.2-3.2-.9-5-1.5-3.6-1.1-17-3.8-23.2-4.6-2.2-.3-5.1-.8-6.5-1.1-4.3-.9-40.1-1.1-47.5-.3-28.9 3.3-48.6 9.5-69.3 21.8-2.9 1.8-5.5 3.2-5.8 3.2-.5 0-17.2 10.9-19.8 13-1 .8-3.3 2.7-5.1 4.2-1.8 1.6-3.5 2.8-3.9 2.8-.8 0-22.8 22.5-27.2 27.8-5.1 6.1-15.4 20.8-15.4 22.1 0 .6-.3 1.1-.7 1.1-.5 0-1.3 1-1.9 2.3-.6 1.2-3 5.9-5.3 10.5-3.9 7.5-4.4 8.1-5.7 6.5-.7-1-1.4-2.1-1.4-2.5 0-1.1-12-21-15.8-26.3-13.5-18.7-34.5-39.7-50-50-2.3-1.5-4.2-3.2-4.2-3.8 0-.6-.3-.8-.6-.4-.3.3-2.7-.9-5.3-2.7-14.6-10.2-34.5-19.5-51.1-23.9-8.6-2.3-11.9-3-25.5-5.3-7.2-1.2-41.8-1.1-51.5.2z"/></svg>